# xmcd
#
# Track frame offsets: 
#        150
#        21617
#        43177
#        62445
#        79645
#        99045
#        119397
#        141890
#        161517
#        189805
#        211012
#        228580
#        251295
#        267772
#        291562
#        306237
#
# Disc length: 4241 seconds
#
# Revision: 1
# Processed by: cddbd v1.5.2PL0 Copyright (c) Steve Scherf et al.
# Submitted via: ExactAudioCopy v1.3
#
DISCID=d7108f10
DTITLE=Frank Fischer - Best of
DYEAR=1996
DGENRE=New Age
TTITLE0=Heavensgate
TTITLE1=Wings of Intent
TTITLE2=Tales of Mullumbimby
TTITLE3=Peyote Bird
TTITLE4=Skywalker
TTITLE5=Magic Spells
TTITLE6=Neon Diamonds
TTITLE7=Ritual of the Wind
TTITLE8=Wild Horizons
TTITLE9=Fata Morgana
TTITLE10=Over the Canyon
TTITLE11=Broken Arrow
TTITLE12=West of Fantasy
TTITLE13=Dream Catcher
TTITLE14=Cafe del Mar
TTITLE15=Siesta
EXTD=YEAR: 1996
EXTT0=
EXTT1=
EXTT2=
EXTT3=
EXTT4=
EXTT5=
EXTT6=
EXTT7=
EXTT8=
EXTT9=
EXTT10=
EXTT11=
EXTT12=
EXTT13=
EXTT14=
EXTT15=
PLAYORDER=
